<svg width="45" height="44" viewBox="0 0 45 44" fill="none" xmlns="http://www.w3.org/2000/svg">
<circle cx="22.5" cy="22" r="21.5" fill="#110C03" stroke="#110C03"/>
<g clip-path="url(#clip0_336_4082)">
<path d="M26.3709 11.9434H26.514C26.6288 13.3619 26.0874 14.4218 25.4294 15.1893C24.7837 15.9516 23.8996 16.6908 22.4696 16.5787C22.3742 15.1805 22.9165 14.1992 23.5736 13.4334C24.1831 12.7197 25.3004 12.0847 26.3709 11.9434ZM30.6997 26.7078V26.7475C30.2978 27.9647 29.7246 29.0078 29.0251 29.9758C28.3865 30.8547 27.6039 32.0373 26.2066 32.0373C24.9992 32.0373 24.1972 31.261 22.9598 31.2398C21.6508 31.2186 20.931 31.8889 19.7342 32.0576H19.3261C18.4473 31.9305 17.738 31.2345 17.2213 30.6073C15.6977 28.7543 14.5203 26.3607 14.3013 23.2976V22.3975C14.394 20.2053 15.4592 18.4229 16.8751 17.5591C17.6223 17.0998 18.6495 16.7085 19.7933 16.8834C20.2835 16.9593 20.7843 17.1272 21.2233 17.2932C21.6393 17.4531 22.1596 17.7366 22.6524 17.7216C22.9863 17.7119 23.3184 17.5379 23.6549 17.4151C24.6406 17.0592 25.6069 16.6511 26.8805 16.8428C28.4112 17.0742 29.4976 17.7543 30.1689 18.8036C28.874 19.6276 27.8503 20.8695 28.0252 22.9902C28.1807 24.9166 29.3006 26.0436 30.6997 26.7078Z" fill="white"/>
</g>
<defs>
<clipPath id="clip0_336_4082">
<rect width="20.1143" height="20.1143" fill="white" transform="translate(12.4429 11.9434)"/>
</clipPath>
</defs>
</svg>
