<svg width="174" height="177" viewBox="0 0 174 177" fill="none" xmlns="http://www.w3.org/2000/svg">
<g clip-path="url(#clip0_336_10961)">
<path d="M74.7599 57.4073L73.2097 57.3397C73.3021 55.2392 74.2305 36.7197 78.3112 33.3414C78.5704 33.1113 78.876 32.939 79.2075 32.8358C79.5391 32.7326 79.889 32.7011 80.2339 32.7432C82.6633 33.0793 85.316 36.9085 88.344 44.4498C90.5 49.8191 92.0541 55.1727 92.0696 55.2262L90.5784 55.652C90.5632 55.5992 89.0274 50.3102 86.8993 45.0118C83.1415 35.6568 80.8367 34.384 80.0202 34.2711C79.8891 34.257 79.7566 34.2727 79.6326 34.317C79.5085 34.3612 79.3962 34.4329 79.3041 34.5267C76.2931 37.0192 75.003 51.8882 74.7599 57.4073Z" fill="black"/>
<path d="M61.0642 47.4145L59.5123 86.097L110.715 80.6146L104.385 43.2676L61.0642 47.4145Z" fill="#FFBA49"/>
<path d="M104.385 43.2676L100.619 43.628L105.632 76.3776L59.6917 81.632L59.5123 86.097L110.715 80.6146L104.385 43.2676Z" fill="#FFA113"/>
<path d="M132.047 109.784L129.918 109.549C129.936 109.383 131.705 92.8347 125.97 86.6468C125.296 85.8941 124.46 85.3027 123.523 84.9171C122.587 84.5315 121.574 84.3616 120.563 84.4202C108.072 84.7732 102.198 106.082 102.141 106.297L100.071 105.747C101.224 101.768 102.827 97.9307 104.847 94.3093C109.199 86.6135 114.612 82.4576 120.502 82.2913C121.82 82.2241 123.137 82.4509 124.356 82.9551C125.575 83.4592 126.665 84.228 127.547 85.2051C133.941 92.1068 132.128 109.065 132.047 109.784Z" fill="#FFBA49"/>
<path d="M94.0504 94.6079L139.249 99.9363L138.547 171.18L78.2136 164.038L94.0504 94.6079Z" fill="#0070CD"/>
<path d="M139.249 99.9365L134.772 99.4087L132.592 165.329L79.0634 160.312L78.2136 164.038L138.547 171.181L139.249 99.9365Z" fill="#0070CD"/>
<path d="M150.576 122.578C152.634 123.006 154.595 121.371 154.956 118.921C155.34 119.573 155.724 120.225 156.108 120.878C155.748 123.327 153.785 124.963 151.729 124.534C151.345 123.882 150.961 123.229 150.576 122.578Z" fill="#FFBA49"/>
<path d="M89.7875 174.975C91.846 175.403 93.8068 173.767 94.1678 171.318C94.5517 171.97 94.9356 172.622 95.3195 173.274C94.9595 175.723 92.997 177.361 90.9408 176.932C90.5569 176.279 90.1724 175.626 89.7875 174.975Z" fill="#9B9B9B"/>
<path d="M155.173 81.5767C156.036 83.8401 158.277 84.846 160.181 83.8188C159.945 84.5647 159.709 85.3104 159.472 86.0559C157.569 87.0811 155.328 86.0767 154.466 83.8123C154.703 83.0679 154.939 82.3227 155.173 81.5767Z" fill="#FF5C00"/>
<path d="M141.853 65.498C142.2 63.0458 140.812 60.7238 138.751 60.3107C139.296 59.8486 139.842 59.3867 140.388 58.9248C142.447 59.3379 143.836 61.6608 143.489 64.1121C142.944 64.5743 142.399 65.0363 141.853 65.498Z" fill="#021193"/>
<path d="M18.1594 55.601C18.5068 53.1488 17.1187 50.8268 15.0577 50.4137C15.6027 49.9516 16.1482 49.4896 16.6942 49.0278C18.7536 49.4408 20.1425 51.7637 19.7959 54.2151C19.2509 54.6772 18.7054 55.1392 18.1594 55.601Z" fill="#FF5C00"/>
<path d="M60.3097 142.493C60.6572 140.04 59.269 137.718 57.2081 137.305C57.7531 136.843 58.2986 136.381 58.8446 135.919C60.9039 136.332 62.2928 138.655 61.9462 141.107C61.4012 141.569 60.8557 142.031 60.3097 142.493Z" fill="#FF5C00"/>
<path d="M168.422 50.5976C170.467 51.1103 172.472 49.5535 172.903 47.1191C173.269 47.7861 173.634 48.4536 174 49.1216C173.57 51.5535 171.563 53.1112 169.52 52.6C169.153 51.9331 168.787 51.2656 168.422 50.5976Z" fill="#FFBA49"/>
<path d="M4.86931 80.723C4.13639 78.3939 1.95695 77.2129 0 78.0861C0.276825 77.362 0.554058 76.637 0.831699 75.9109C2.78703 75.0386 4.96768 76.2187 5.70101 78.5469C5.4242 79.2719 5.14696 79.9973 4.86931 80.723Z" fill="#FFBA49"/>
<path d="M55.6583 109.091C55.8027 111.571 57.6097 113.443 59.6936 113.27C59.2541 113.872 58.8138 114.472 58.3752 115.074C56.2906 115.245 54.4843 113.373 54.34 110.893C54.7794 110.293 55.2189 109.693 55.6583 109.091Z" fill="#DB3022"/>
<path d="M40.9307 64.0299C43.0003 63.6881 44.4448 61.4138 44.1568 58.9507C44.6915 59.4316 45.2253 59.912 45.7584 60.3918C46.0455 62.8559 44.6019 65.1288 42.5322 65.472C41.9991 64.9909 41.4653 64.5102 40.9307 64.0299Z" fill="#021193"/>
<path d="M125.323 33.8255C122.64 33.9138 124.569 38.6111 121.884 38.7013C121.372 38.1891 120.859 37.6769 120.346 37.1648C123.031 37.076 121.102 32.3787 123.785 32.2886C124.298 32.8007 124.811 33.3131 125.323 33.8255Z" fill="#FF5C00"/>
<path d="M130.2 157.287C127.588 156.551 128.434 161.681 125.821 160.945C125.437 160.293 125.052 159.641 124.668 158.988C127.281 159.725 126.434 154.594 129.048 155.331C129.431 155.983 129.816 156.635 130.2 157.287Z" fill="#FFBA49"/>
<path d="M52.5183 163.965C50.6732 166.288 54.8282 167.989 52.9831 170.31C52.3168 170.378 51.6497 170.448 50.9834 170.515C52.8285 168.195 48.6734 166.496 50.5185 164.173C51.1856 164.105 51.8522 164.036 52.5183 163.965Z" fill="#021193"/>
<path d="M112.285 3.61854C109.657 4.28267 112.265 8.49151 109.639 9.15421C109.059 8.75958 108.475 8.36641 107.894 7.97081C110.52 7.30849 107.912 3.10118 110.539 2.43701C111.121 2.83259 111.703 3.22643 112.285 3.61854Z" fill="#DB3022"/>
<path d="M27.977 17.4536C29.2692 20.2556 31.9031 16.0705 33.1933 18.8716C33.0435 19.6472 32.8955 20.4256 32.7448 21.2016C31.4546 18.3996 28.8222 22.5861 27.53 19.7841C27.6803 19.0061 27.8293 18.2293 27.977 17.4536Z" fill="#9B9B9B"/>
<path d="M5.70105 127.625C6.04765 127.563 6.36122 127.382 6.58703 127.113C6.81284 126.844 6.93654 126.505 6.93654 126.155C6.93654 125.805 6.81284 125.466 6.58703 125.197C6.36122 124.928 6.04765 124.747 5.70105 124.685" fill="black"/>
<path d="M145.932 14.015C144.803 14.015 143.885 12.9217 143.885 11.5778C143.885 10.2339 144.803 9.14062 145.932 9.14062C147.062 9.14062 147.98 10.2339 147.98 11.5778C147.98 12.9217 147.062 14.015 145.932 14.015ZM145.932 10.1074C145.574 10.1426 145.243 10.3164 145.012 10.5914C144.781 10.8664 144.668 11.2206 144.697 11.5778C144.664 11.7576 144.672 11.9424 144.719 12.1191C144.766 12.2957 144.851 12.46 144.969 12.6002C145.087 12.7405 145.234 12.8533 145.401 12.9307C145.567 13.0081 145.749 13.0483 145.932 13.0483C146.116 13.0483 146.298 13.0081 146.464 12.9307C146.631 12.8533 146.778 12.7405 146.896 12.6002C147.014 12.46 147.099 12.2957 147.146 12.1191C147.193 11.9424 147.201 11.7576 147.168 11.5778C147.197 11.2206 147.084 10.8665 146.853 10.5915C146.621 10.3165 146.291 10.1426 145.932 10.1074Z" fill="black"/>
<path d="M26.7252 106.352C25.5961 106.352 24.6775 105.259 24.6775 103.915C24.6775 102.571 25.5961 101.478 26.7252 101.478C27.8544 101.478 28.773 102.571 28.773 103.915C28.773 105.259 27.8544 106.352 26.7252 106.352ZM26.7252 102.444C26.3786 102.507 26.0651 102.688 25.8393 102.957C25.6135 103.225 25.4898 103.565 25.4898 103.915C25.4898 104.265 25.6135 104.604 25.8393 104.873C26.0651 105.141 26.3786 105.323 26.7252 105.385C27.0718 105.323 27.3854 105.141 27.6112 104.873C27.837 104.604 27.9607 104.265 27.9607 103.915C27.9607 103.565 27.837 103.225 27.6112 102.957C27.3854 102.688 27.0718 102.507 26.7252 102.444Z" fill="black"/>
</g>
<defs>
<clipPath id="clip0_336_10961">
<rect width="174" height="177" fill="white"/>
</clipPath>
</defs>
</svg>
