<svg width="30" height="42" viewBox="0 0 30 42" fill="none" xmlns="http://www.w3.org/2000/svg">
<path d="M12 21.097L7.05025 26.0467C4.31658 28.7804 4.31658 33.2126 7.05025 35.9463C9.78392 38.6799 14.2161 38.6799 16.9497 35.9463C19.6834 33.2126 19.6834 28.7804 16.9497 26.0467L12 21.097ZM12 18.2686L18.364 24.6325C21.8787 28.1473 21.8787 33.8458 18.364 37.3605C14.8492 40.8752 9.15076 40.8752 5.63604 37.3605C2.12132 33.8458 2.12132 28.1473 5.63604 24.6325L12 18.2686Z" fill="white"/>
<path d="M21 2.32249L17.2877 6.0348C15.2374 8.08502 15.2374 11.4092 17.2877 13.4594C19.3379 15.5096 22.6621 15.5096 24.7123 13.4594C26.7625 11.4092 26.7625 8.08502 24.7123 6.0348L21 2.32249ZM21 0.201172L25.773 4.97414C28.409 7.6102 28.409 11.8841 25.773 14.5201C23.1369 17.1561 18.8631 17.1561 16.227 14.5201C13.591 11.8841 13.591 7.6102 16.227 4.97414L21 0.201172Z" fill="white"/>
<path d="M7 9.29082L4.9376 11.3532C3.79858 12.4922 3.79858 14.339 4.9376 15.478C6.07663 16.617 7.92338 16.617 9.06238 15.478C10.2014 14.339 10.2014 12.4922 9.06238 11.3532L7 9.29082ZM7 8.1123L9.65167 10.764C11.1161 12.2284 11.1161 14.6028 9.65167 16.0673C8.18717 17.5317 5.81282 17.5317 4.34835 16.0673C2.88388 14.6028 2.88388 12.2284 4.34835 10.764L7 8.1123Z" fill="white"/>
</svg>
