<svg width="38" height="39" viewBox="0 0 38 39" fill="none" xmlns="http://www.w3.org/2000/svg">
<rect x="0.5" y="1" width="37" height="37" rx="18.5" fill="white" stroke="#EDE2FD"/>
<path d="M19 12C17.502 12.0029 16.0347 12.4256 14.7647 13.22C13.4947 14.0145 12.4727 15.1489 11.8147 16.4947C11.1567 17.8405 10.8889 19.3437 11.0419 20.8339C11.1948 22.3241 11.7623 23.7416 12.68 24.9257L12.2114 27.0286C12.1885 27.128 12.1935 27.2318 12.2257 27.3286C12.258 27.4253 12.3163 27.5113 12.3943 27.5771C12.4705 27.6457 12.5638 27.6925 12.6643 27.7126C12.7649 27.7327 12.869 27.7254 12.9657 27.6914L15.0571 26.96C16.2574 27.6466 17.6172 28.0053 19 28C21.1217 28 23.1565 27.1571 24.6568 25.6568C26.1571 24.1566 27 22.1217 27 20C27 17.8783 26.1571 15.8434 24.6568 14.3431C23.1565 12.8429 21.1217 12 19 12ZM19.3771 23.0743C19.2686 23.1759 19.1258 23.2331 18.9771 23.2343C18.8242 23.2374 18.6763 23.1799 18.5657 23.0743C18.4587 22.9637 18.3975 22.8167 18.3943 22.6629C18.3976 22.5124 18.459 22.369 18.5657 22.2629C18.6762 22.1609 18.8211 22.1043 18.9714 22.1043C19.1218 22.1043 19.2666 22.1609 19.3771 22.2629C19.4257 22.3166 19.4644 22.3785 19.4914 22.4457C19.5229 22.5137 19.5385 22.5879 19.5371 22.6628C19.5381 22.8153 19.4809 22.9625 19.3771 23.0743ZM20.3486 20.2057L20.2 20.3314C20.0286 20.4914 19.5486 20.9143 19.5371 21.0857C19.5324 21.2347 19.4703 21.3761 19.3639 21.4804C19.2574 21.5848 19.1148 21.644 18.9657 21.6457H18.9543C18.8058 21.6455 18.6635 21.5864 18.5586 21.4814C18.4536 21.3764 18.3945 21.2342 18.3943 21.0857C18.3943 20.4114 18.9771 19.8971 19.4457 19.4743L19.5828 19.36C19.6614 19.2803 19.7231 19.1856 19.7643 19.0815C19.8056 18.9775 19.8255 18.8662 19.8228 18.7543C19.8228 18.6423 19.8005 18.5314 19.7572 18.4281C19.714 18.3248 19.6507 18.231 19.5709 18.1524C19.4912 18.0737 19.3966 18.0117 19.2928 17.9698C19.1889 17.928 19.0777 17.9071 18.9657 17.9086C18.7837 17.9103 18.6069 17.97 18.461 18.0789C18.3151 18.1878 18.2077 18.3403 18.1543 18.5143C18.1089 18.6603 18.0081 18.7828 17.8735 18.8554C17.7389 18.9281 17.5813 18.9451 17.4343 18.9029C17.2893 18.8566 17.1685 18.7551 17.0979 18.6203C17.0273 18.4855 17.0126 18.3283 17.0571 18.1829C17.196 17.7253 17.4944 17.3328 17.8982 17.0765C18.3019 16.8203 18.7842 16.7175 19.2573 16.7867C19.7304 16.8558 20.1631 17.0924 20.4766 17.4535C20.7901 17.8146 20.9636 18.2761 20.9657 18.7543C20.9692 19.0258 20.9162 19.2951 20.8099 19.545C20.7037 19.7949 20.5466 20.0199 20.3486 20.2057Z" fill="#0070CD"/>
</svg>
