<svg width="45" height="44" viewBox="0 0 45 44" fill="none" xmlns="http://www.w3.org/2000/svg">
<circle cx="22.5" cy="22" r="21.5" fill="white" stroke="#CECECE"/>
<g clip-path="url(#clip0_336_4072)">
<path d="M32.1748 20.2606L23.9704 20.2603C23.6081 20.2603 23.3145 20.5539 23.3145 20.9162V23.5371C23.3145 23.8993 23.6081 24.193 23.9704 24.193H28.5906C28.0847 25.506 27.1404 26.6056 25.9357 27.3042L27.9057 30.7146C31.066 28.8869 32.9343 25.68 32.9343 22.0902C32.9343 21.579 32.8966 21.2136 32.8213 20.8022C32.764 20.4896 32.4926 20.2606 32.1748 20.2606Z" fill="#167EE6"/>
<path d="M22.8772 28.1313C20.6161 28.1313 18.6422 26.896 17.5821 25.0679L14.1719 27.0335C15.9073 30.0413 19.1584 32.0667 22.8772 32.0667C24.7015 32.0667 26.4228 31.5756 27.9057 30.7196V30.7149L25.9357 27.3045C25.0345 27.8271 23.9917 28.1313 22.8772 28.1313Z" fill="#12B347"/>
<path d="M27.9055 30.7183V30.7136L25.9355 27.3032C25.0343 27.8258 23.9916 28.1301 22.877 28.1301V32.0655C24.7013 32.0655 26.4227 31.5743 27.9055 30.7183Z" fill="#0F993E"/>
<path d="M16.7552 22.0088C16.7552 20.8943 17.0594 19.8516 17.5819 18.9505L14.1717 16.9849C13.311 18.4631 12.8198 20.1798 12.8198 22.0088C12.8198 23.8377 13.311 25.5545 14.1717 27.0327L17.5819 25.067C17.0594 24.1659 16.7552 23.1233 16.7552 22.0088Z" fill="#FFD500"/>
<path d="M22.8772 15.8871C24.3516 15.8871 25.7059 16.411 26.7638 17.2825C27.0247 17.4974 27.404 17.4819 27.6431 17.2429L29.5001 15.3858C29.7714 15.1146 29.752 14.6706 29.4623 14.4193C27.6899 12.8817 25.3839 11.9517 22.8772 11.9517C19.1584 11.9517 15.9073 13.9771 14.1719 16.9849L17.5821 18.9505C18.6422 17.1224 20.6161 15.8871 22.8772 15.8871Z" fill="#FF4B26"/>
<path d="M26.7636 17.2825C27.0245 17.4974 27.4039 17.4819 27.6429 17.2429L29.4999 15.3858C29.7711 15.1146 29.7518 14.6706 29.4621 14.4193C27.6897 12.8816 25.3837 11.9517 22.877 11.9517V15.8871C24.3513 15.8871 25.7057 16.411 26.7636 17.2825Z" fill="#D93F21"/>
</g>
<defs>
<clipPath id="clip0_336_4072">
<rect width="20.1143" height="20.1143" fill="white" transform="translate(12.8198 11.9517)"/>
</clipPath>
</defs>
</svg>
