<svg width="30" height="31" viewBox="0 0 30 31" fill="none" xmlns="http://www.w3.org/2000/svg">
<path d="M15 0.254395C6.72852 0.254395 0 6.98291 0 15.2544C0 23.5259 6.72852 30.2544 15 30.2544C23.2715 30.2544 30 23.5259 30 15.2544C30 6.98291 23.2715 0.254395 15 0.254395ZM15 2.75439C21.9189 2.75439 27.5 8.33545 27.5 15.2544C27.5 22.1733 21.9189 27.7544 15 27.7544C8.08106 27.7544 2.5 22.1733 2.5 15.2544C2.5 8.33545 8.08106 2.75439 15 2.75439ZM8.125 9.00439C7.08984 9.00439 6.25 9.84424 6.25 10.8794C6.25 10.9966 6.25977 11.1089 6.28906 11.231C6.34277 11.5288 6.46484 11.7827 6.64062 12.0122C7.57812 13.6284 10 15.2544 10 15.2544C10 15.2544 13.75 12.8716 13.75 10.8794C13.75 9.84424 12.9102 9.00439 11.875 9.00439C10.8398 9.00439 10 9.84424 10 10.8794C10 9.84424 9.16016 9.00439 8.125 9.00439ZM18.125 9.00439C17.0898 9.00439 16.25 9.84424 16.25 10.8794C16.25 10.9966 16.2598 11.1089 16.2891 11.231C16.3428 11.5288 16.4648 11.7827 16.6406 12.0122C17.5781 13.6284 20 15.2544 20 15.2544C20 15.2544 22.4854 13.6431 23.3984 11.9731C23.5986 11.6021 23.75 11.2407 23.75 10.8794C23.75 9.84424 22.9102 9.00439 21.875 9.00439C20.8398 9.00439 20 9.84424 20 10.8794C20 9.84424 19.1602 9.00439 18.125 9.00439ZM8.51562 19.0044L6.36719 20.2544C8.0957 23.2378 11.3086 25.2544 15 25.2544C18.6914 25.2544 21.9043 23.2378 23.6328 20.2544L21.4844 19.0044C20.1855 21.2456 17.7832 22.7544 15 22.7544C12.2168 22.7544 9.81445 21.2456 8.51562 19.0044Z" fill="#FE6806" fill-opacity="0.28"/>
</svg>
