<svg width="20" height="20" viewBox="0 0 20 20" fill="none" xmlns="http://www.w3.org/2000/svg">
<path d="M19.6608 7.85641L17.9979 6.41823L17.1365 5.71342L10.6454 0.236904C10.2673 -0.0789681 9.7013 -0.0789681 9.32315 0.236904L2.8321 5.71342L1.97064 6.41823L0.307806 7.85641C-0.0789363 8.20961 -0.104542 8.78975 0.249716 9.17252C0.603975 9.55529 1.21243 9.6049 1.63006 9.28507L1.97064 8.99934V17.1427C1.97064 18.7207 3.31607 20 4.97575 20H6.97916V14.2854C6.97916 12.7073 8.3246 11.4281 9.98428 11.4281C11.644 11.4281 12.9894 12.7073 12.9894 14.2854V20H14.9928C16.6525 20 17.9979 18.7207 17.9979 17.1427V8.99934L18.3385 9.28507C18.7536 9.63173 19.3855 9.59338 19.7509 9.19935C20.1155 8.80466 20.0752 8.20382 19.6608 7.85641Z" fill="#9098B1"/>
</svg>
