<svg width="16" height="16" viewBox="0 0 16 16" fill="none" xmlns="http://www.w3.org/2000/svg">
<path d="M8.00016 14.6668C4.31826 14.6668 1.3335 11.682 1.3335 8.00016C1.3335 4.31826 4.31826 1.3335 8.00016 1.3335C11.682 1.3335 14.6668 4.31826 14.6668 8.00016C14.6668 11.682 11.682 14.6668 8.00016 14.6668ZM6.47351 13.1118C5.83178 11.7508 5.43838 10.2496 5.3517 8.66683H2.70809C2.97216 10.7845 4.47776 12.5166 6.47351 13.1118ZM6.6873 8.66683C6.78756 10.2927 7.25203 11.82 8.00016 13.1682C8.7483 11.82 9.21276 10.2927 9.31303 8.66683H6.6873ZM13.2922 8.66683H10.6486C10.562 10.2496 10.1686 11.7508 9.52683 13.1118C11.5226 12.5166 13.0282 10.7845 13.2922 8.66683ZM2.70809 7.3335H5.3517C5.43838 5.75068 5.83178 4.24954 6.47351 2.88854C4.47776 3.48372 2.97216 5.21583 2.70809 7.3335ZM6.6873 7.3335H9.31303C9.21276 5.70764 8.7483 4.18033 8.00016 2.83216C7.25203 4.18033 6.78756 5.70764 6.6873 7.3335ZM9.52683 2.88854C10.1686 4.24954 10.562 5.75068 10.6486 7.3335H13.2922C13.0282 5.21583 11.5226 3.48372 9.52683 2.88854Z" fill="#0070CD"/>
</svg>
