<svg width="50" height="51" viewBox="0 0 50 51" fill="none" xmlns="http://www.w3.org/2000/svg">
<rect x="0.5" y="1" width="49" height="49" rx="24.5" fill="white" stroke="#EDE2FD"/>
<path d="M25 33.4166L29.1248 29.2917C31.4028 27.0137 31.4028 23.3203 29.1248 21.0422C26.8468 18.7641 23.1533 18.7641 20.8752 21.0422C18.5972 23.3203 18.5972 27.0137 20.8752 29.2917L25 33.4166ZM25 35.7736L19.6967 30.4703C16.7678 27.5413 16.7678 22.7926 19.6967 19.8637C22.6256 16.9348 27.3743 16.9348 30.3033 19.8637C33.2323 22.7926 33.2323 27.5413 30.3033 30.4703L25 35.7736ZM25 26.8337C25.9205 26.8337 26.6667 26.0875 26.6667 25.167C26.6667 24.2465 25.9205 23.5003 25 23.5003C24.0795 23.5003 23.3333 24.2465 23.3333 25.167C23.3333 26.0875 24.0795 26.8337 25 26.8337ZM25 28.5003C23.159 28.5003 21.6667 27.0079 21.6667 25.167C21.6667 23.326 23.159 21.8337 25 21.8337C26.8409 21.8337 28.3333 23.326 28.3333 25.167C28.3333 27.0079 26.8409 28.5003 25 28.5003Z" fill="#0070CD"/>
</svg>
