<svg width="39" height="39" viewBox="0 0 39 39" fill="none" xmlns="http://www.w3.org/2000/svg">
<rect x="1" y="1" width="37" height="37" rx="18.5" fill="white" stroke="#EDE2FD"/>
<path d="M26.8132 19.4766L24.6965 16.9346C24.4475 16.6355 24.0739 16.6355 23.8249 16.9346L23.3891 17.4579L24.8833 19.2523H17.5681C17.2257 19.2523 16.9455 19.5888 16.9455 20C16.9455 20.4112 17.2257 20.7477 17.5681 20.7477H24.8833L23.3891 22.5421L23.8249 23.0654C24.0739 23.3645 24.4475 23.3645 24.6965 23.0654L26.8132 20.5234C27.0623 20.2243 27.0623 19.7757 26.8132 19.4766ZM14.4553 28C12.5875 28 11.0623 26.243 11 24V16C11.0623 13.757 12.5875 12 14.4553 12H18.4708C20.3074 12 21.7704 13.7944 21.8016 16C21.8016 16.4486 21.5214 16.785 21.1479 16.785C20.7743 16.785 20.4942 16.4486 20.4942 16C20.4942 14.6542 19.5914 13.5701 18.4708 13.5701H14.4553C13.3346 13.5701 12.3696 14.6168 12.3074 16V24C12.3696 25.3458 13.3035 26.4299 14.4553 26.4299H18.4708C19.5914 26.4299 20.4942 25.3458 20.4942 24C20.4942 23.5514 20.7743 23.215 21.1479 23.215C21.5214 23.215 21.8016 23.5514 21.8016 24C21.8016 26.2056 20.3074 28 18.4708 28H14.4553Z" fill="#0070CD"/>
</svg>
