<svg width="30" height="31" viewBox="0 0 30 31" fill="none" xmlns="http://www.w3.org/2000/svg">
<path d="M15 0.254395C6.72852 0.254395 0 6.98291 0 15.2544C0 23.5259 6.72852 30.2544 15 30.2544C23.2715 30.2544 30 23.5259 30 15.2544C30 6.98291 23.2715 0.254395 15 0.254395ZM15 2.75439C21.9189 2.75439 27.5 8.33545 27.5 15.2544C27.5 22.1733 21.9189 27.7544 15 27.7544C8.08106 27.7544 2.5 22.1733 2.5 15.2544C2.5 8.33545 8.08106 2.75439 15 2.75439ZM9.375 10.2544C8.33984 10.2544 7.5 11.0942 7.5 12.1294C7.5 13.1646 8.33984 14.0044 9.375 14.0044C10.4102 14.0044 11.25 13.1646 11.25 12.1294C11.25 11.0942 10.4102 10.2544 9.375 10.2544ZM20.625 10.2544C19.5898 10.2544 18.75 11.0942 18.75 12.1294C18.75 13.1646 19.5898 14.0044 20.625 14.0044C21.6602 14.0044 22.5 13.1646 22.5 12.1294C22.5 11.0942 21.6602 10.2544 20.625 10.2544ZM8.51562 19.0044L6.36719 20.2544C8.0957 23.2378 11.3086 25.2544 15 25.2544C18.6914 25.2544 21.9043 23.2378 23.6328 20.2544L21.4844 19.0044C20.1855 21.2456 17.7832 22.7544 15 22.7544C12.2168 22.7544 9.81445 21.2456 8.51562 19.0044Z" fill="#FE6806" fill-opacity="0.28"/>
</svg>
