<svg width="50" height="51" viewBox="0 0 50 51" fill="none" xmlns="http://www.w3.org/2000/svg">
<rect x="0.5" y="1" width="49" height="49" rx="24.5" fill="white" stroke="#EDE2FD"/>
<path d="M22.3656 26.6821C23.302 28.3288 24.6712 29.698 26.3179 30.6344L27.2024 29.3961C27.4965 28.9845 28.0516 28.8573 28.4956 29.0998C29.9024 29.8683 31.4571 30.3353 33.0789 30.4637C33.599 30.5049 34 30.9389 34 31.4606V35.9234C34 36.4361 33.6122 36.8657 33.1022 36.9181C32.5723 36.9726 32.0377 37 31.5 37C22.9396 37 16 30.0604 16 21.5C16 20.9623 16.0274 20.4277 16.0819 19.8978C16.1343 19.3877 16.5639 19 17.0767 19H21.5394C22.0611 19 22.4951 19.401 22.5363 19.9211C22.6647 21.5429 23.1317 23.0976 23.9002 24.5044C24.1427 24.9484 24.0155 25.5035 23.6039 25.7976L22.3656 26.6821ZM19.8443 26.0252L21.7442 24.6681C21.2055 23.5051 20.8363 22.2718 20.6473 21H18.0091C18.003 21.1663 18 21.333 18 21.5C18 28.9558 24.0442 35 31.5 35C31.667 35 31.8337 34.997 32 34.9909V32.3527C30.7282 32.1637 29.4949 31.7945 28.3319 31.2558L26.9748 33.1558C26.4258 32.9425 25.8956 32.6915 25.3874 32.4061L25.3293 32.373C23.3697 31.2587 21.7413 29.6303 20.627 27.6707L20.5939 27.6126C20.3085 27.1044 20.0575 26.5742 19.8443 26.0252Z" fill="#0070CD"/>
<path d="M24.2278 28V25.86H27.4678V16.06H28.7078L24.5478 18.54V16.1L28.2078 13.9H30.0478V25.86H33.0878V28H24.2278Z" fill="#0070CD"/>
</svg>
