<svg width="51" height="51" viewBox="0 0 51 51" fill="none" xmlns="http://www.w3.org/2000/svg">
<rect x="1" y="1" width="49" height="49" rx="24.5" fill="white" stroke="#EDE2FD"/>
<path d="M22.3656 26.6821C23.302 28.3288 24.6712 29.698 26.3179 30.6344L27.2024 29.3961C27.4965 28.9845 28.0516 28.8573 28.4956 29.0998C29.9024 29.8683 31.4571 30.3353 33.0789 30.4637C33.599 30.5049 34 30.9389 34 31.4606V35.9234C34 36.4361 33.6122 36.8657 33.1022 36.9181C32.5723 36.9726 32.0377 37 31.5 37C22.9396 37 16 30.0604 16 21.5C16 20.9623 16.0274 20.4277 16.0819 19.8978C16.1343 19.3877 16.5639 19 17.0767 19H21.5394C22.0611 19 22.4951 19.401 22.5363 19.9211C22.6647 21.5429 23.1317 23.0976 23.9002 24.5044C24.1427 24.9484 24.0155 25.5035 23.6039 25.7976L22.3656 26.6821ZM19.8443 26.0252L21.7442 24.6681C21.2055 23.5051 20.8363 22.2718 20.6473 21H18.0091C18.003 21.1663 18 21.333 18 21.5C18 28.9558 24.0442 35 31.5 35C31.667 35 31.8337 34.997 32 34.9909V32.3527C30.7282 32.1637 29.4949 31.7945 28.3319 31.2558L26.9748 33.1558C26.4258 32.9425 25.8956 32.6915 25.3874 32.4061L25.3293 32.373C23.3697 31.2587 21.7413 29.6303 20.627 27.6707L20.5939 27.6126C20.3085 27.1044 20.0575 26.5742 19.8443 26.0252Z" fill="#0070CD"/>
<path d="M26.5678 28V26.1L31.2478 21.22C31.8345 20.6067 32.2678 20.04 32.5478 19.52C32.8278 19 32.9678 18.4667 32.9678 17.92C32.9678 17.24 32.7545 16.7267 32.3278 16.38C31.9011 16.0333 31.2811 15.86 30.4678 15.86C29.8145 15.86 29.1878 15.98 28.5878 16.22C27.9878 16.4467 27.4011 16.8067 26.8278 17.3L25.9878 15.38C26.5611 14.8733 27.2678 14.4667 28.1078 14.16C28.9611 13.8533 29.8545 13.7 30.7878 13.7C32.3078 13.7 33.4745 14.04 34.2878 14.72C35.1011 15.4 35.5078 16.3733 35.5078 17.64C35.5078 18.52 35.3011 19.36 34.8878 20.16C34.4745 20.9467 33.8345 21.7733 32.9678 22.64L29.0678 26.54V25.86H36.0678V28H26.5678Z" fill="#0070CD"/>
</svg>
