<svg width="155" height="43" viewBox="0 0 155 43" fill="none" xmlns="http://www.w3.org/2000/svg">
<path d="M12.8665 19.303C14.2605 19.303 15.493 19.0905 16.564 18.6655C17.635 18.2235 18.5275 17.62 19.2415 16.855C19.9725 16.09 20.5165 15.1805 20.8735 14.1265C21.2475 13.0725 21.4345 11.9165 21.4345 10.6585C21.4345 8.7715 20.8735 7.2755 19.7515 6.1705C18.6465 5.0485 16.955 4.4875 14.677 4.4875H9.5515L7.741 19.303H12.8665ZM15.187 0.381997C17.159 0.381997 18.8675 0.619997 20.3125 1.096C21.7575 1.572 22.9475 2.2435 23.8825 3.1105C24.8345 3.9605 25.54 4.989 25.999 6.196C26.458 7.386 26.6875 8.712 26.6875 10.174C26.6875 12.112 26.373 13.897 25.744 15.529C25.132 17.144 24.214 18.538 22.99 19.711C21.783 20.884 20.287 21.802 18.502 22.465C16.717 23.128 14.6685 23.4595 12.3565 23.4595H7.231L5.5735 37H0.3715L4.834 0.381997H15.187ZM32.9592 22.9125C33.8692 21.6058 34.8726 20.62 35.9692 19.955C37.0659 19.29 38.1859 18.9575 39.3292 18.9575C40.0876 18.9575 40.7526 19.1092 41.3242 19.4125C41.9076 19.7042 42.3801 20.1358 42.7417 20.7075C43.1034 21.2792 43.3484 21.985 43.4767 22.825C43.6167 23.6533 43.6226 24.6042 43.4942 25.6775L42.1642 37H38.7517L40.0817 25.6775C40.2451 24.3358 40.1634 23.35 39.8367 22.72C39.5217 22.09 38.9267 21.775 38.0517 21.775C37.5384 21.775 37.0134 21.915 36.4767 22.195C35.9517 22.475 35.4326 22.8717 34.9192 23.385C34.4176 23.8867 33.9451 24.505 33.5017 25.24C33.0701 25.9633 32.6967 26.7683 32.3817 27.655L31.2442 37H27.8317L30.9642 11.17H34.3767L32.9592 22.9125ZM58.5521 21.5475C58.0971 21.4775 57.648 21.4425 57.2046 21.4425C56.1663 21.4425 55.1921 21.6875 54.2821 22.1775C53.3721 22.6558 52.5788 23.3033 51.9021 24.12C51.2371 24.9367 50.7063 25.8875 50.3096 26.9725C49.9246 28.0458 49.7321 29.1717 49.7321 30.35C49.7321 31.715 49.9538 32.7358 50.3971 33.4125C50.8405 34.0775 51.4821 34.41 52.3221 34.41C52.8705 34.41 53.4071 34.235 53.9321 33.885C54.4688 33.5233 54.9705 33.0333 55.4371 32.415C55.9155 31.785 56.353 31.0442 56.7496 30.1925C57.158 29.3408 57.5138 28.4133 57.8171 27.41L58.5521 21.5475ZM57.3621 32.555C56.9538 33.2667 56.5105 33.9142 56.0321 34.4975C55.5655 35.0692 55.0638 35.5592 54.5271 35.9675C54.0021 36.3758 53.4421 36.6908 52.8471 36.9125C52.2638 37.1342 51.6571 37.245 51.0271 37.245C50.3271 37.245 49.6855 37.1108 49.1021 36.8425C48.5305 36.5625 48.0346 36.16 47.6146 35.635C47.2063 35.0983 46.8855 34.4392 46.6521 33.6575C46.4305 32.8758 46.3196 31.9775 46.3196 30.9625C46.3196 29.9125 46.448 28.8858 46.7046 27.8825C46.973 26.8675 47.3521 25.9167 47.8421 25.03C48.3321 24.1433 48.9155 23.3267 49.5921 22.58C50.2805 21.8333 51.0446 21.1917 51.8846 20.655C52.7246 20.1183 53.6288 19.7042 54.5971 19.4125C55.5771 19.1092 56.598 18.9575 57.6596 18.9575C58.4296 18.9575 59.1821 19.0217 59.9171 19.15C60.6638 19.2667 61.3988 19.4767 62.1221 19.78L59.9871 37H58.2021C57.7588 37 57.4613 36.8892 57.3096 36.6675C57.158 36.4342 57.0821 36.1542 57.0821 35.8275L57.3621 32.555ZM69.1982 24.015C69.6648 23.0467 70.1665 22.2125 70.7032 21.5125C71.2398 20.8008 71.7998 20.2467 72.3832 19.85C72.9665 19.4417 73.5673 19.1967 74.1857 19.115C74.8157 19.0217 75.4457 19.115 76.0757 19.395L75.4632 22.685C73.9582 22.0783 72.6398 22.2825 71.5082 23.2975C70.3765 24.3125 69.4607 26.1908 68.7607 28.9325L67.7807 37H64.4382L66.5907 19.185H68.3057C68.679 19.185 68.9648 19.2783 69.1632 19.465C69.3615 19.6517 69.4607 19.9433 69.4607 20.34L69.1982 24.015ZM76.5036 37L78.6561 19.185H80.3711C80.7444 19.185 81.0303 19.2783 81.2286 19.465C81.4269 19.6517 81.5261 19.9433 81.5261 20.34L81.3161 23.1925C82.1678 21.7925 83.1011 20.7367 84.1161 20.025C85.1311 19.3133 86.2044 18.9575 87.3361 18.9575C88.5028 18.9575 89.3778 19.3542 89.9611 20.1475C90.5561 20.9408 90.8653 22.09 90.8886 23.595C91.7636 22.0083 92.7378 20.8417 93.8111 20.095C94.8961 19.3367 96.0511 18.9575 97.2761 18.9575C98.8044 18.9575 99.8953 19.535 100.549 20.69C101.202 21.845 101.394 23.5075 101.126 25.6775L99.7961 37H96.4361L97.7661 25.6775C97.9294 24.3475 97.8886 23.3675 97.6436 22.7375C97.3986 22.1075 96.8678 21.7925 96.0511 21.7925C95.5611 21.7925 95.0769 21.915 94.5986 22.16C94.1203 22.405 93.6594 22.7725 93.2161 23.2625C92.7728 23.7408 92.3586 24.33 91.9736 25.03C91.5886 25.73 91.2503 26.535 90.9586 27.445L89.8211 37H86.4611L87.7911 25.6775C87.8728 25.0125 87.9078 24.435 87.8961 23.945C87.8961 23.455 87.8319 23.0525 87.7036 22.7375C87.5869 22.4225 87.4003 22.1892 87.1436 22.0375C86.8986 21.8742 86.5719 21.7925 86.1636 21.7925C85.6269 21.7925 85.1078 21.9325 84.6061 22.2125C84.1161 22.4808 83.6494 22.8717 83.2061 23.385C82.7744 23.8983 82.3661 24.5225 81.9811 25.2575C81.6078 25.9808 81.2694 26.8033 80.9661 27.725L79.8461 37H76.5036ZM116.179 21.5475C115.724 21.4775 115.275 21.4425 114.832 21.4425C113.793 21.4425 112.819 21.6875 111.909 22.1775C110.999 22.6558 110.206 23.3033 109.529 24.12C108.864 24.9367 108.333 25.8875 107.937 26.9725C107.552 28.0458 107.359 29.1717 107.359 30.35C107.359 31.715 107.581 32.7358 108.024 33.4125C108.467 34.0775 109.109 34.41 109.949 34.41C110.497 34.41 111.034 34.235 111.559 33.885C112.096 33.5233 112.597 33.0333 113.064 32.415C113.542 31.785 113.98 31.0442 114.377 30.1925C114.785 29.3408 115.141 28.4133 115.444 27.41L116.179 21.5475ZM114.989 32.555C114.581 33.2667 114.137 33.9142 113.659 34.4975C113.192 35.0692 112.691 35.5592 112.154 35.9675C111.629 36.3758 111.069 36.6908 110.474 36.9125C109.891 37.1342 109.284 37.245 108.654 37.245C107.954 37.245 107.312 37.1108 106.729 36.8425C106.157 36.5625 105.662 36.16 105.242 35.635C104.833 35.0983 104.512 34.4392 104.279 33.6575C104.057 32.8758 103.947 31.9775 103.947 30.9625C103.947 29.9125 104.075 28.8858 104.332 27.8825C104.6 26.8675 104.979 25.9167 105.469 25.03C105.959 24.1433 106.542 23.3267 107.219 22.58C107.907 21.8333 108.672 21.1917 109.512 20.655C110.352 20.1183 111.256 19.7042 112.224 19.4125C113.204 19.1092 114.225 18.9575 115.287 18.9575C116.057 18.9575 116.809 19.0217 117.544 19.15C118.291 19.2667 119.026 19.4767 119.749 19.78L117.614 37H115.829C115.386 37 115.088 36.8892 114.937 36.6675C114.785 36.4342 114.709 36.1542 114.709 35.8275L114.989 32.555ZM135.488 33.815C134.893 34.48 134.321 35.0342 133.773 35.4775C133.224 35.9208 132.67 36.2767 132.11 36.545C131.562 36.8017 130.99 36.9825 130.395 37.0875C129.812 37.1925 129.17 37.245 128.47 37.245C127.443 37.245 126.528 37.07 125.723 36.72C124.929 36.37 124.258 35.8742 123.71 35.2325C123.173 34.5908 122.765 33.8208 122.485 32.9225C122.205 32.0242 122.065 31.0267 122.065 29.93C122.065 28.9733 122.164 28.04 122.363 27.13C122.573 26.2083 122.87 25.345 123.255 24.54C123.64 23.7233 124.107 22.9767 124.655 22.3C125.203 21.6117 125.816 21.0225 126.493 20.5325C127.169 20.0308 127.904 19.6458 128.698 19.3775C129.503 19.0975 130.354 18.9575 131.253 18.9575C132.431 18.9575 133.417 19.1675 134.21 19.5875C135.015 20.0075 135.721 20.62 136.328 21.425L135.26 22.72C135.167 22.8133 135.062 22.895 134.945 22.965C134.84 23.035 134.723 23.07 134.595 23.07C134.432 23.07 134.268 23 134.105 22.86C133.942 22.72 133.738 22.5683 133.493 22.405C133.248 22.23 132.938 22.0725 132.565 21.9325C132.203 21.7925 131.737 21.7225 131.165 21.7225C130.395 21.7225 129.666 21.9325 128.978 22.3525C128.289 22.7608 127.688 23.3325 127.175 24.0675C126.662 24.8025 126.253 25.6717 125.95 26.675C125.647 27.6783 125.495 28.7692 125.495 29.9475C125.495 30.6475 125.577 31.2833 125.74 31.855C125.903 32.4267 126.137 32.9108 126.44 33.3075C126.755 33.7042 127.14 34.0133 127.595 34.235C128.062 34.445 128.593 34.55 129.188 34.55C129.689 34.55 130.133 34.4975 130.518 34.3925C130.914 34.2875 131.258 34.1592 131.55 34.0075C131.853 33.8558 132.122 33.6867 132.355 33.5C132.588 33.3133 132.798 33.1442 132.985 32.9925C133.172 32.8408 133.347 32.7125 133.51 32.6075C133.673 32.5025 133.837 32.45 134 32.45C134.233 32.45 134.443 32.555 134.63 32.765L135.488 33.815ZM154.344 19.22L142.409 42.1975C142.14 42.7108 141.749 42.9675 141.236 42.9675H138.716L142.601 35.8625L138.016 19.22H140.851C141.119 19.22 141.318 19.2842 141.446 19.4125C141.574 19.5408 141.668 19.7042 141.726 19.9025L144.421 30.5775C144.479 30.8342 144.526 31.0908 144.561 31.3475C144.608 31.5925 144.643 31.8492 144.666 32.1175C144.771 31.8492 144.876 31.5867 144.981 31.33C145.098 31.0733 145.22 30.8167 145.349 30.56L150.651 19.885C150.744 19.6867 150.879 19.5292 151.054 19.4125C151.24 19.2842 151.427 19.22 151.614 19.22H154.344Z" fill="white"/>
</svg>
