<svg width="50" height="51" viewBox="0 0 50 51" fill="none" xmlns="http://www.w3.org/2000/svg">
<rect x="0.5" y="1" width="49" height="49" rx="24.5" fill="white" stroke="#EDE2FD"/>
<path d="M22.3656 24.6821C23.302 26.3288 24.6712 27.698 26.3179 28.6344L27.2024 27.3961C27.4965 26.9845 28.0516 26.8573 28.4956 27.0998C29.9024 27.8683 31.4571 28.3353 33.0789 28.4637C33.599 28.5049 34 28.9389 34 29.4606V33.9234C34 34.4361 33.6122 34.8657 33.1022 34.9181C32.5723 34.9726 32.0377 35 31.5 35C22.9396 35 16 28.0604 16 19.5C16 18.9623 16.0274 18.4277 16.0819 17.8978C16.1343 17.3877 16.5639 17 17.0767 17H21.5394C22.0611 17 22.4951 17.401 22.5363 17.9211C22.6647 19.5429 23.1317 21.0976 23.9002 22.5044C24.1427 22.9484 24.0155 23.5035 23.6039 23.7976L22.3656 24.6821ZM19.8443 24.0252L21.7442 22.6681C21.2055 21.5051 20.8363 20.2718 20.6473 19H18.0091C18.003 19.1663 18 19.333 18 19.5C18 26.9558 24.0442 33 31.5 33C31.667 33 31.8337 32.997 32 32.9909V30.3527C30.7282 30.1637 29.4949 29.7945 28.3319 29.2558L26.9748 31.1558C26.4258 30.9425 25.8956 30.6915 25.3874 30.4061L25.3293 30.373C23.3697 29.2587 21.7413 27.6303 20.627 25.6707L20.5939 25.6126C20.3085 25.1044 20.0575 24.5742 19.8443 24.0252Z" fill="#0070CD"/>
</svg>
