<svg width="38" height="39" viewBox="0 0 38 39" fill="none" xmlns="http://www.w3.org/2000/svg">
<rect x="0.5" y="1" width="37" height="37" rx="18.5" fill="white" stroke="#EDE2FD"/>
<path d="M19.0013 11.167C16.818 11.167 15.043 12.942 15.043 15.1253C15.043 17.267 16.718 19.0003 18.9013 19.0753C18.968 19.067 19.0346 19.067 19.0846 19.0753C19.1013 19.0753 19.1096 19.0753 19.1263 19.0753C19.1346 19.0753 19.1346 19.0753 19.143 19.0753C21.2763 19.0003 22.9513 17.267 22.9596 15.1253C22.9596 12.942 21.1846 11.167 19.0013 11.167Z" fill="#0070CD"/>
<path d="M23.2328 21.2914C20.9078 19.7414 17.1161 19.7414 14.7745 21.2914C13.7161 21.9997 13.1328 22.9581 13.1328 23.9831C13.1328 25.0081 13.7161 25.9581 14.7661 26.6581C15.9328 27.4414 17.4661 27.8331 18.9995 27.8331C20.5328 27.8331 22.0661 27.4414 23.2328 26.6581C24.2828 25.9497 24.8661 24.9997 24.8661 23.9664C24.8578 22.9414 24.2828 21.9914 23.2328 21.2914Z" fill="#0070CD"/>
</svg>
