
<svg width="38" height="39" viewBox="0 0 38 39" fill="none" xmlns="http://www.w3.org/2000/svg">
<rect x="0.5" y="1" width="37" height="37" rx="18.5" fill="white" stroke="#EDE2FD"/>
<path d="M19.0013 11.167C16.818 11.167 15.043 12.942 15.043 15.1253C15.043 17.267 16.718 19.0003 18.9013 19.0753C18.968 19.067 19.0346 19.067 19.0846 19.0753C19.1013 19.0753 19.1096 19.0753 19.1263 19.0753C19.1346 19.0753 19.1346 19.0753 19.143 19.0753C21.2763 19.0003 22.9513 17.267 22.9596 15.1253C22.9596 12.942 21.1846 11.167 19.0013 11.167Z" fill="#0070CD"/>
<path d="M23.2328 21.2914C20.9078 19.7414 17.1161 19.7414 14.7745 21.2914C13.7161 21.9997 13.1328 22.9581 13.1328 23.9831C13.1328 25.0081 13.7161 25.9581 14.7661 26.6581C15.9328 27.4414 17.4661 27.8331 18.9995 27.8331C20.5328 27.8331 22.0661 27.4414 23.2328 26.6581C24.2828 25.9497 24.8661 24.9997 24.8661 23.9664C24.8578 22.9414 24.2828 21.9914 23.2328 21.2914Z" fill="#0070CD"/>

<svg width="20" height="20" viewBox="0 0 20 20" fill="none" xmlns="http://www.w3.org/2000/svg">
<path d="M10.0003 1.6665C7.81699 1.6665 6.04199 3.4415 6.04199 5.62484C6.04199 7.7665 7.71699 9.49984 9.90033 9.57484C9.96699 9.5665 10.0337 9.5665 10.0837 9.57484C10.1003 9.57484 10.1087 9.57484 10.1253 9.57484C10.1337 9.57484 10.1337 9.57484 10.142 9.57484C12.2753 9.49984 13.9503 7.7665 13.9587 5.62484C13.9587 3.4415 12.1837 1.6665 10.0003 1.6665Z" fill="#9098B1"/>
<path d="M14.2338 11.7919C11.9088 10.2419 8.11712 10.2419 5.77546 11.7919C4.71712 12.5002 4.13379 13.4586 4.13379 14.4836C4.13379 15.5086 4.71712 16.4586 5.76712 17.1586C6.93379 17.9419 8.46712 18.3336 10.0005 18.3336C11.5338 18.3336 13.0671 17.9419 14.2338 17.1586C15.2838 16.4502 15.8671 15.5002 15.8671 14.4669C15.8588 13.4419 15.2838 12.4919 14.2338 11.7919Z" fill="#9098B1"/>

</svg>
