<svg width="30" height="31" viewBox="0 0 30 31" fill="none" xmlns="http://www.w3.org/2000/svg">
<path d="M15 0.254395C6.73067 0.254395 0 6.98506 0 15.2544C0 23.5237 6.73067 30.2544 15 30.2544C23.2693 30.2544 30 23.5237 30 15.2544C30 6.98506 23.2693 0.254395 15 0.254395ZM15 2.75439C21.9182 2.75439 27.5 8.33623 27.5 15.2544C27.5 22.1726 21.9182 27.7544 15 27.7544C8.08183 27.7544 2.5 22.1726 2.5 15.2544C2.5 8.33623 8.08183 2.75439 15 2.75439ZM7.00928 11.7607L5.49072 13.748C5.49072 13.748 7.39345 15.2544 10 15.2544C12.6066 15.2544 14.5093 13.748 14.5093 13.748L12.9907 11.7607C12.9907 11.7607 11.6209 12.7544 10 12.7544C8.37906 12.7544 7.00928 11.7607 7.00928 11.7607ZM17.0093 11.7607L15.4907 13.748C15.4907 13.748 17.3934 15.2544 20 15.2544C22.6066 15.2544 24.5093 13.748 24.5093 13.748L22.9907 11.7607C22.9907 11.7607 21.6209 12.7544 20 12.7544C18.3791 12.7544 17.0093 11.7607 17.0093 11.7607ZM15 19.0044C12.3934 19.0044 10.4907 20.5107 10.4907 20.5107L12.0093 22.498C12.0093 22.498 13.3791 21.5044 15 21.5044C16.6209 21.5044 17.9907 22.498 17.9907 22.498L19.5093 20.5107C19.5093 20.5107 17.6066 19.0044 15 19.0044Z" fill="#FE6806" fill-opacity="0.28"/>
</svg>
