<svg width="32" height="37" viewBox="0 0 32 37" fill="none" xmlns="http://www.w3.org/2000/svg">
<path d="M13.3333 21.6667V25C7.81048 25 3.33333 29.4772 3.33333 35H0C0 27.6362 5.96953 21.6667 13.3333 21.6667ZM13.3333 20C7.80833 20 3.33333 15.525 3.33333 10C3.33333 4.475 7.80833 0 13.3333 0C18.8583 0 23.3333 4.475 23.3333 10C23.3333 15.525 18.8583 20 13.3333 20ZM13.3333 16.6667C17.0167 16.6667 20 13.6833 20 10C20 6.31667 17.0167 3.33333 13.3333 3.33333C9.65 3.33333 6.66667 6.31667 6.66667 10C6.66667 13.6833 9.65 16.6667 13.3333 16.6667ZM29.077 31.72L31.5828 34.2258L29.2258 36.5828L26.72 34.077C25.7275 34.6635 24.5697 35 23.3333 35C19.6515 35 16.6667 32.0152 16.6667 28.3333C16.6667 24.6515 19.6515 21.6667 23.3333 21.6667C27.0152 21.6667 30 24.6515 30 28.3333C30 29.5697 29.6635 30.7275 29.077 31.72ZM23.3333 31.6667C25.1743 31.6667 26.6667 30.1743 26.6667 28.3333C26.6667 26.4923 25.1743 25 23.3333 25C21.4923 25 20 26.4923 20 28.3333C20 30.1743 21.4923 31.6667 23.3333 31.6667Z" fill="#0070CD"/>
</svg>
