<svg width="375" height="392" viewBox="0 0 375 392" fill="none" xmlns="http://www.w3.org/2000/svg">
<path d="M0.5 376.119V0.5H428.5V179.136C407.824 189.727 381.184 207.636 351.433 228.677C338.919 237.527 325.856 246.93 312.451 256.58C293.828 269.987 274.543 283.869 255.148 297.407C221.801 320.684 188.169 342.915 157.114 359.889C126.048 376.87 97.6137 388.559 74.6518 390.806C43.9752 393.742 19.6211 387.077 0.5 376.119Z" fill="#0070CD" stroke="black"/>
<path opacity="0.2" d="M429.475 0H188.297C189.494 33.912 207.811 66.4215 239.98 91.7251C272.148 117.029 316.074 133.479 363.914 138.139C389.071 127.174 411.636 117.949 429.475 112.219V0Z" fill="white"/>
</svg>
