<svg width="100" height="100" viewBox="0 0 100 100" fill="none" xmlns="http://www.w3.org/2000/svg">
<circle cx="50" cy="50" r="50" fill="#0070CD"/>
<path d="M50.8665 51.303C52.2605 51.303 53.493 51.0905 54.564 50.6655C55.635 50.2235 56.5275 49.62 57.2415 48.855C57.9725 48.09 58.5165 47.1805 58.8735 46.1265C59.2475 45.0725 59.4345 43.9165 59.4345 42.6585C59.4345 40.7715 58.8735 39.2755 57.7515 38.1705C56.6465 37.0485 54.955 36.4875 52.677 36.4875H47.5515L45.741 51.303H50.8665ZM53.187 32.382C55.159 32.382 56.8675 32.62 58.3125 33.096C59.7575 33.572 60.9475 34.2435 61.8825 35.1105C62.8345 35.9605 63.54 36.989 63.999 38.196C64.458 39.386 64.6875 40.712 64.6875 42.174C64.6875 44.112 64.373 45.897 63.744 47.529C63.132 49.144 62.214 50.538 60.99 51.711C59.783 52.884 58.287 53.802 56.502 54.465C54.717 55.128 52.6685 55.4595 50.3565 55.4595H45.231L43.5735 69H38.3715L42.834 32.382H53.187Z" fill="white"/>
</svg>
