<svg width="72" height="72" viewBox="0 0 72 72" fill="none" xmlns="http://www.w3.org/2000/svg">
<circle cx="35.6399" cy="36.3601" r="35.6399" fill="white"/>
<path d="M37.3206 39.3832C38.414 39.3832 39.3806 39.2165 40.2206 38.8832C41.0606 38.5365 41.7606 38.0632 42.3206 37.4632C42.894 36.8632 43.3206 36.1498 43.6006 35.3232C43.894 34.4965 44.0406 33.5898 44.0406 32.6032C44.0406 31.1232 43.6006 29.9498 42.7206 29.0832C41.854 28.2032 40.5273 27.7632 38.7406 27.7632H34.7206L33.3006 39.3832H37.3206ZM39.1406 24.5432C40.6873 24.5432 42.0273 24.7298 43.1606 25.1032C44.294 25.4765 45.2273 26.0032 45.9606 26.6832C46.7073 27.3498 47.2606 28.1565 47.6206 29.1032C47.9806 30.0365 48.1606 31.0765 48.1606 32.2232C48.1606 33.7432 47.914 35.1432 47.4206 36.4232C46.9406 37.6898 46.2206 38.7832 45.2606 39.7032C44.314 40.6232 43.1406 41.3432 41.7406 41.8632C40.3406 42.3832 38.734 42.6432 36.9206 42.6432H32.9006L31.6006 53.2632H27.5206L31.0206 24.5432H39.1406Z" fill="#0070CD"/>
</svg>
